<svg width="854" height="200" viewBox="0 0 854 200" fill="none" xmlns="http://www.w3.org/2000/svg">
<g clip-path="url(#clip0_759_30)">
<mask id="mask0_759_30" style="mask-type:luminance" maskUnits="userSpaceOnUse" x="0" y="0" width="200" height="200">
<path d="M200 0H0V200H200V0Z" fill="white"/>
</mask>
<g mask="url(#mask0_759_30)">
<path fill-rule="evenodd" clip-rule="evenodd" d="M185.01 152.663C194.797 136.865 200 118.629 200 100C200 73.4783 189.464 48.043 170.711 29.2893C151.957 10.5357 126.522 0 100 0C80.2219 0 60.8879 5.8649 44.443 16.853C27.9981 27.8412 15.1809 43.459 7.61209 61.7317C0.0433297 80.0043 -1.93701 100.111 1.92152 119.509C5.78004 138.907 15.3041 156.725 29.2894 170.711C43.2746 184.696 61.0929 194.22 80.491 198.079C99.8891 201.937 119.996 199.957 138.268 192.388C156.541 184.819 172.159 172.002 183.147 155.557C183.771 154.622 184.379 153.678 184.971 152.726L185 152.73C185.003 152.707 185.006 152.685 185.01 152.663ZM101.665 12.0157C88.8446 36.5404 79.7023 41.4265 72.9097 45.0001C66.8397 48.2301 62.8397 50.3601 56.8497 76.3201C51.4416 99.7552 36.1602 116.929 15.2424 123.667C17.7332 132.587 21.6298 141.106 26.8307 148.89C27.1222 149.326 27.4173 149.76 27.7161 150.19C34.6053 134.198 54.2918 120.176 83.24 111.27C100.73 105.88 100.1 97.0001 97 77.4301C95.76 69.5801 94.36 60.6701 95 51.5701C95.62 42.8301 99.7 33.5701 106.19 26.1801C110.378 21.4059 115.454 17.5185 121.244 14.6027C114.864 13.0156 108.298 12.1412 101.665 12.0157ZM50.9496 173.062C45.9352 169.696 41.2795 165.821 37.0571 161.5C38.4048 143.815 63.3682 129.937 86.78 122.73C114.97 114.06 111.74 93.5601 108.89 75.5601C107.69 67.9901 106.45 60.1601 107 52.4301C108.332 33.6201 126.393 23.6891 139.215 21.2205C142.543 22.8774 145.776 24.7496 148.89 26.8307C149.314 27.114 149.736 27.4008 150.154 27.6911C140.822 34.8518 127.266 50.1433 128 78.12C128.209 86.1941 130.796 93.8589 133.534 101.972L133.54 101.99L133.541 101.993C139.38 119.332 145.419 137.261 130.74 164.08C123.963 176.498 118.061 181.389 109.389 187.498C105.448 187.921 101.491 188.076 97.5471 187.966C107.136 179.143 118.334 166.219 117.12 154.81C116.65 150.46 114.36 144.5 105.41 140.52C96.4598 136.54 87.6798 136.41 79.2998 140.13C65.0908 146.45 55.6978 162.715 50.9496 173.062ZM140 77.84C139.318 52.1114 153.137 39.8993 159.863 35.4982C166.446 41.6084 172.061 48.6956 176.505 56.5147C167.724 61.3208 158 70.7443 158 85.9999C158 96.7899 162.45 106.33 166.8 115.54C171.278 125.146 175.542 134.296 175.55 145.124C171.85 151.319 167.382 157.068 162.225 162.225C154.096 170.354 144.496 176.771 133.995 181.169C136.418 178.021 138.815 174.344 141.26 169.88C158.413 138.563 150.959 116.277 144.969 98.367L144.91 98.19C142.36 90.64 140.16 84.12 140 77.84ZM183.043 129.119C181.155 122.796 178.462 116.998 175.917 111.519L175.82 111.31C171.8 102.71 168 94.5799 168 85.9999C168 74.8109 175.322 68.5959 180.948 65.4834C181.067 65.7628 181.185 66.043 181.301 66.3239C187.962 82.4038 189.705 100.098 186.309 117.168C185.499 121.24 184.406 125.232 183.043 129.119ZM61.3781 179.072C63.0001 179.864 64.6493 180.608 66.3239 181.301C71.1912 183.318 76.2065 184.883 81.3075 185.992C92.2937 177.372 105.991 163.364 105.21 156.08L105.209 156.074C105.129 155.34 104.918 153.415 100.56 151.48C94.7698 148.91 89.4198 148.78 84.1998 151.1C73.6855 155.763 65.6231 169.568 61.3781 179.072ZM12.8005 111.842C29.1805 106.149 40.7803 92.6015 45.1497 73.6501C51.9997 43.8801 57.9997 39.3501 67.2697 34.4401C72.3615 31.7499 78.4328 28.498 87.4881 12.907C68.7849 15.612 51.3233 24.2845 37.8039 37.8038C21.3064 54.3013 12.0265 76.6691 12 100C12 103.976 12.2694 107.932 12.8005 111.842Z" fill="url(#paint0_linear_759_30)"/>
</g>
</g>
<path d="M278.104 120.176H262.736V152H242.064V54.352H278.104C301.904 54.352 316.728 65.64 316.728 86.856C316.728 108.072 301.904 120.176 278.104 120.176ZM277.968 71.76H262.736V102.768H277.968C289.664 102.768 296.192 96.648 296.192 86.992C296.192 77.336 289.664 71.76 277.968 71.76ZM344.111 152H325.071V54.352H344.111V152ZM400.231 152V143.024C395.471 149.824 388.263 153.36 378.335 153.36C363.239 153.36 353.175 144.52 353.175 130.92C353.175 116.776 364.599 109.16 385.815 109.16C389.895 109.16 393.431 109.432 397.919 109.976V105.624C397.919 97.464 393.295 92.704 385.407 92.704C377.247 92.704 372.351 97.464 371.671 105.624H354.671C355.759 88.896 367.863 78.016 385.407 78.016C404.447 78.016 415.599 88.488 415.599 106.304V152H400.231ZM370.991 130.376C370.991 136.496 375.343 140.304 382.415 140.304C392.071 140.304 397.919 135 397.919 126.568V121.4C393.431 120.72 390.303 120.448 387.039 120.448C376.295 120.448 370.991 123.848 370.991 130.376ZM490.702 79.376L455.342 178.248H434.806L445.142 151.184L416.582 79.376H436.982L455.206 129.152L471.798 79.376H490.702ZM556.383 152L549.039 131.056H511.095L503.615 152H482.807L519.527 54.352H542.103L578.551 152H556.383ZM530.271 76.928L516.943 114.6H543.327L530.271 76.928ZM603.639 116.776V152H584.735V79.376H602.143V93.384C607.447 84.136 618.735 78.56 630.431 78.56V98.144C614.383 96.92 603.639 100.728 603.639 116.776ZM667.191 153.224C645.431 153.224 630.879 138.128 630.879 115.416C630.879 93.792 645.975 78.016 666.919 78.016C689.903 78.016 705.135 96.648 701.735 120.312H650.191C651.415 132.144 657.127 138.672 666.783 138.672C675.079 138.672 680.655 134.592 682.831 127.384H701.599C697.519 143.84 684.871 153.224 667.191 153.224ZM666.511 91.888C657.671 91.888 652.095 97.6 650.463 108.344H681.743C681.199 98.28 675.487 91.888 666.511 91.888ZM729.221 112.424V152H710.317V79.376H727.725V89.712C733.029 82.504 740.509 78.016 750.029 78.016C764.581 78.016 774.645 87.536 774.645 105.08V152H755.877V111.472C755.877 100.728 751.661 94.744 743.093 94.744C735.613 94.744 729.221 100.728 729.221 112.424ZM830.102 152V143.024C825.342 149.824 818.134 153.36 808.206 153.36C793.11 153.36 783.046 144.52 783.046 130.92C783.046 116.776 794.47 109.16 815.686 109.16C819.766 109.16 823.302 109.432 827.79 109.976V105.624C827.79 97.464 823.166 92.704 815.278 92.704C807.118 92.704 802.222 97.464 801.542 105.624H784.542C785.63 88.896 797.734 78.016 815.278 78.016C834.318 78.016 845.47 88.488 845.47 106.304V152H830.102ZM800.862 130.376C800.862 136.496 805.214 140.304 812.286 140.304C821.942 140.304 827.79 135 827.79 126.568V121.4C823.302 120.72 820.174 120.448 816.91 120.448C806.166 120.448 800.862 123.848 800.862 130.376Z" fill="#212121"/>
<defs>
<linearGradient id="paint0_linear_759_30" x1="9" y1="20.5" x2="181.5" y2="193" gradientUnits="userSpaceOnUse">
<stop stop-color="#019C85"/>
<stop offset="0.5" stop-color="#00796B"/>
<stop offset="1" stop-color="#004D40"/>
</linearGradient>
<clipPath id="clip0_759_30">
<rect width="200" height="200" fill="white"/>
</clipPath>
</defs>
</svg>
