<svg width="60" height="60" viewBox="0 0 60 60" fill="none" xmlns="http://www.w3.org/2000/svg">
<rect width="60" height="60" rx="12" fill="#00796B"/>
<path d="M20.17 34.98H16.78V42H12.22V20.46H20.17C25.42 20.46 28.69 22.95 28.69 27.63C28.69 32.31 25.42 34.98 20.17 34.98ZM20.14 24.3H16.78V31.14H20.14C22.72 31.14 24.16 29.79 24.16 27.66C24.16 25.53 22.72 24.3 20.14 24.3ZM43.7962 42L42.1762 37.38H33.8062L32.1562 42H27.5662L35.6662 20.46H40.6462L48.6862 42H43.7962ZM38.0362 25.44L35.0962 33.75H40.9162L38.0362 25.44Z" fill="white"/>
</svg>
