<svg width="800" height="800" viewBox="0 0 800 800" fill="none" xmlns="http://www.w3.org/2000/svg">
<g clip-path="url(#clip0_662_290)">
<path d="M475.2 724.8L400 800L324.8 724.8C177 690.666 66.6665 558.133 66.6665 400C66.6665 216 216 66.6665 400 66.6665C584 66.6665 733.333 216 733.333 400C733.333 558.133 623 690.666 475.2 724.8ZM200.766 513.866C249.7 586.866 323.166 633.333 405.333 633.333C487.466 633.333 560.966 586.9 609.866 513.866C554.391 462.02 481.265 433.227 405.333 433.333C329.39 433.218 256.25 462.012 200.766 513.866ZM400 366.666C426.521 366.666 451.957 356.131 470.711 337.377C489.464 318.624 500 293.188 500 266.666C500 240.145 489.464 214.709 470.711 195.956C451.957 177.202 426.521 166.667 400 166.667C373.478 166.667 348.043 177.202 329.289 195.956C310.535 214.709 300 240.145 300 266.666C300 293.188 310.535 318.624 329.289 337.377C348.043 356.131 373.478 366.666 400 366.666Z" fill="#E6E6E6"/>
</g>
<defs>
<clipPath id="clip0_662_290">
<rect width="800" height="800" fill="white"/>
</clipPath>
</defs>
</svg>
