<svg width="660" height="303" viewBox="0 0 660 303" fill="none" xmlns="http://www.w3.org/2000/svg">
<path d="M500.946 175.984C503.721 177.459 507.167 176.406 508.642 173.632C510.118 170.857 509.065 167.411 506.291 165.936C503.516 164.46 500.07 165.513 498.595 168.288C497.119 171.062 498.172 174.508 500.946 175.984Z" fill="#FF7043"/>
<path d="M496.809 239.531C499.583 241.006 503.029 239.953 504.505 237.179C505.98 234.404 504.927 230.959 502.153 229.483C499.378 228.007 495.933 229.06 494.457 231.835C492.981 234.609 494.034 238.055 496.809 239.531Z" fill="#00796B"/>
<path d="M479.711 89.8884C484.796 93.0183 489.067 97.3088 492.173 102.408C495.28 107.507 497.133 113.27 497.582 119.224C497.701 120.907 497.995 122.841 496.62 124.106C496.112 124.601 495.452 124.909 494.747 124.98C494.041 125.051 493.333 124.88 492.737 124.496C492.046 123.917 491.564 123.125 491.368 122.244C491.172 121.364 491.272 120.443 491.652 119.624C492.033 118.806 492.673 118.136 493.472 117.719C494.272 117.301 495.188 117.159 496.077 117.315C500.553 117.699 502.952 122.061 504.906 125.563C509.352 133.538 514.697 141.456 522.634 146.316C529.981 150.815 539.706 152.168 547.431 147.831C548.78 147.076 547.514 145.031 546.169 145.787C538.506 150.092 528.794 147.931 521.968 143.006C517.949 139.981 514.478 136.289 511.705 132.092C510.24 129.966 508.897 127.759 507.625 125.512C506.474 123.263 505.126 121.12 503.596 119.108C500.955 115.923 496.42 113.649 492.363 115.592C488.575 117.403 487.637 123.271 490.875 126.069C491.598 126.657 492.456 127.057 493.372 127.232C494.287 127.407 495.232 127.352 496.122 127.073C497.011 126.793 497.817 126.297 498.468 125.63C499.118 124.962 499.593 124.143 499.85 123.247C500.417 121.296 500.008 118.875 499.748 116.895C498.975 110.935 496.874 105.225 493.602 100.184C490.329 95.144 485.967 90.9016 480.838 87.7698C479.51 86.9773 478.386 89.0996 479.711 89.8884Z" fill="#E6E6E6"/>
<path d="M643.341 80.7671C639.297 78.2782 635.901 74.8663 633.43 70.8112C630.959 66.756 629.484 62.1731 629.126 57.4379C629.032 56.099 628.799 54.5594 629.892 53.5549C630.295 53.1614 630.82 52.9165 631.381 52.8602C631.942 52.8038 632.506 52.9395 632.979 53.2448C633.527 53.7068 633.907 54.336 634.062 55.0354C634.216 55.7349 634.136 56.4657 633.834 57.1152C633.532 57.7647 633.025 58.2967 632.39 58.6294C631.756 58.962 631.03 59.0767 630.324 58.9558C626.765 58.6484 624.857 55.1816 623.301 52.3961C619.765 46.0525 615.514 39.7554 609.199 35.8879C603.359 32.311 595.62 31.2324 589.476 34.6825C588.401 35.2862 589.409 36.9115 590.479 36.3078C596.572 32.8858 604.299 34.598 609.727 38.5187C612.923 40.9255 615.684 43.8616 617.89 47.2C619.055 48.8911 620.123 50.6472 621.134 52.4364C622.049 54.2256 623.122 55.9302 624.338 57.5299C626.439 60.0639 630.042 61.8695 633.27 60.3249C633.989 59.9344 634.607 59.3811 635.074 58.7093C635.54 58.0375 635.843 57.2657 635.959 56.4558C636.074 55.6459 635.998 54.8203 635.737 54.045C635.475 53.2698 635.037 52.5664 634.455 51.9911C633.88 51.5232 633.197 51.2053 632.469 51.0659C631.741 50.9265 630.989 50.9699 630.282 51.1922C629.574 51.4146 628.933 51.8089 628.415 52.3399C627.898 52.8709 627.52 53.522 627.316 54.2349C627.014 55.9081 627.042 57.6241 627.397 59.2869C628.013 64.028 629.684 68.5706 632.288 72.5801C634.893 76.5896 638.363 79.9638 642.444 82.4541C643.5 83.085 644.395 81.3957 643.341 80.7671Z" fill="#E6E6E6"/>
<path d="M618.769 136.236L613.745 133.564L604.965 150.072L609.989 152.744L618.769 136.236Z" fill="#E6E6E6"/>
<path d="M543.641 81.5137L548.993 79.8767L543.615 62.2931L538.263 63.9301L543.641 81.5137Z" fill="#757575"/>
<path d="M447.891 258.163L449.528 263.515L467.112 258.137L465.475 252.785L447.891 258.163Z" fill="#FF7043"/>
<path d="M307.76 260.19C359.101 260.19 400.721 218.57 400.721 167.229C400.721 115.888 359.101 74.2678 307.76 74.2678C256.419 74.2678 214.799 115.888 214.799 167.229C214.799 218.57 256.419 260.19 307.76 260.19Z" fill="#00796B"/>
<path d="M298.543 202.691C296.451 202.694 294.416 202.017 292.743 200.763L292.643 200.685L270.796 183.973C268.773 182.399 267.455 180.089 267.129 177.547C266.803 175.005 267.494 172.437 269.054 170.404C270.613 168.37 272.913 167.035 275.452 166.69C277.992 166.345 280.565 167.018 282.61 168.563L296.761 179.415L330.2 135.79C330.975 134.778 331.941 133.928 333.044 133.29C334.148 132.652 335.366 132.237 336.63 132.07C337.893 131.903 339.177 131.986 340.409 132.316C341.64 132.645 342.794 133.214 343.806 133.99L343.599 134.278L343.812 133.99C345.853 135.557 347.189 137.87 347.526 140.422C347.864 142.973 347.175 145.554 345.612 147.599L306.28 198.889C305.37 200.07 304.2 201.027 302.861 201.683C301.522 202.34 300.049 202.679 298.558 202.675L298.543 202.691Z" fill="white"/>
<path d="M245.652 97.9468C244.756 97.9439 243.898 97.5866 243.264 96.9529C242.631 96.3193 242.274 95.4607 242.272 94.5648C242.268 94.2988 242.298 94.0333 242.361 93.7748L259.861 16.6838C259.993 16.1031 260.276 15.5673 260.681 15.1303C261.086 14.6933 261.599 14.3702 262.167 14.1936C262.736 14.017 263.342 13.993 263.923 14.1239C264.504 14.2549 265.041 14.5363 265.479 14.9398L323.503 68.6678C323.94 69.0726 324.262 69.5848 324.439 70.1535C324.615 70.7221 324.639 71.3271 324.509 71.9079C324.378 72.4888 324.097 73.0252 323.694 73.4633C323.291 73.9015 322.78 74.2262 322.212 74.4048L246.672 97.7948C246.341 97.8957 245.997 97.947 245.652 97.9468Z" fill="#757575"/>
<path d="M293.11 41.5909L256.663 34.3379L257.237 31.8069L289.463 38.2129L293.11 41.5909Z" fill="white"/>
<path d="M321.809 68.1759L252.124 54.3099L252.698 51.7659L318.156 64.7839L321.809 68.1759Z" fill="white"/>
<path d="M296.879 81.4298L291.649 83.0468L247.597 74.2808L248.17 71.7368L296.879 81.4298Z" fill="white"/>
<path d="M110.982 210.703C115.111 209.673 117.624 205.491 116.595 201.361C115.565 197.232 111.383 194.719 107.253 195.749C103.124 196.778 100.611 200.96 101.641 205.09C102.67 209.219 106.852 211.732 110.982 210.703Z" fill="#00796B"/>
<path d="M42.4645 28.0953C45.414 27.3599 47.2089 24.3728 46.4735 21.4233C45.7381 18.4738 42.7509 16.6789 39.8014 17.4143C36.852 18.1497 35.0571 21.1369 35.7925 24.0864C36.5279 27.0358 39.515 28.8307 42.4645 28.0953Z" fill="#FF7043"/>
<path d="M74.1598 172.232C77.1093 171.497 78.9042 168.51 78.1688 165.56C77.4334 162.611 74.4462 160.816 71.4968 161.551C68.5473 162.287 66.7524 165.274 67.4878 168.223C68.2232 171.173 71.2104 172.968 74.1598 172.232Z" fill="#00796B"/>
<path d="M102.407 258.221C105.356 257.486 107.151 254.499 106.416 251.549C105.68 248.6 102.693 246.805 99.7438 247.54C96.7943 248.276 94.9995 251.263 95.7349 254.212C96.4702 257.162 99.4574 258.957 102.407 258.221Z" fill="#F5F5F5"/>
<path d="M8.00358 79.8114C10.9531 79.076 12.7479 76.0888 12.0126 73.1393C11.2772 70.1899 8.28999 68.395 5.34051 69.1304C2.39103 69.8658 0.59615 72.8529 1.33154 75.8024C2.06693 78.7519 5.0541 80.5468 8.00358 79.8114Z" fill="#E6E6E6"/>
<path d="M153.655 178.333C149.307 176.855 145.37 174.367 142.169 171.074C138.967 167.781 136.592 163.776 135.237 159.387C134.859 158.141 134.309 156.743 135.124 155.561C135.42 155.103 135.862 154.759 136.379 154.586C136.896 154.412 137.457 154.419 137.969 154.605C138.584 154.923 139.078 155.435 139.374 156.061C139.67 156.688 139.752 157.394 139.606 158.071C139.461 158.749 139.097 159.359 138.571 159.81C138.044 160.26 137.384 160.524 136.692 160.562C133.269 161.039 130.722 158.176 128.66 155.885C123.958 150.668 118.599 145.638 111.813 143.347C105.531 141.228 98.0055 141.876 92.953 146.45C92.0694 147.251 93.3686 148.563 94.2512 147.767C99.2614 143.23 106.92 143.188 112.878 145.716C116.41 147.298 119.645 149.473 122.442 152.147C123.905 153.491 125.289 154.918 126.628 156.386C127.876 157.876 129.254 159.254 130.746 160.501C133.271 162.438 137.058 163.368 139.772 161.217C140.366 160.694 140.829 160.04 141.125 159.306C141.42 158.572 141.54 157.78 141.474 156.991C141.409 156.203 141.16 155.441 140.747 154.766C140.334 154.091 139.769 153.522 139.097 153.104C138.454 152.786 137.742 152.633 137.025 152.658C136.308 152.683 135.608 152.885 134.989 153.247C134.369 153.608 133.849 154.118 133.475 154.73C133.101 155.343 132.884 156.038 132.845 156.755C132.92 158.397 133.314 160.01 134.007 161.501C135.607 165.841 138.16 169.766 141.478 172.987C144.796 176.209 148.795 178.645 153.179 180.116C154.311 180.484 154.792 178.7 153.663 178.333L153.655 178.333Z" fill="#E6E6E6"/>
<path d="M20.6694 140.9L25.3066 143.687L34.4614 128.451L29.8242 125.664L20.6694 140.9Z" fill="#757575"/>
<path d="M19.982 269.407C24.1115 268.377 26.6244 264.195 25.5948 260.065C24.5652 255.936 20.383 253.423 16.2535 254.453C12.124 255.482 9.61102 259.665 10.6406 263.794C11.6702 267.923 15.8525 270.436 19.982 269.407Z" fill="#00796B"/>
</svg>
