<svg width="150" height="150" viewBox="0 0 150 150" fill="none" xmlns="http://www.w3.org/2000/svg">
<rect width="150" height="150" fill="#E6E6E6"/>
<path d="M80.8333 67.5H69.1667C68.2462 67.5 67.5 68.2462 67.5 69.1667V80.8333C67.5 81.7538 68.2462 82.5 69.1667 82.5H80.8333C81.7538 82.5 82.5 81.7538 82.5 80.8333V69.1667C82.5 68.2462 81.7538 67.5 80.8333 67.5Z" stroke="#757575" stroke-width="1.66667" stroke-linecap="round" stroke-linejoin="round"/>
<path d="M72.5002 74.1667C73.4206 74.1667 74.1668 73.4205 74.1668 72.5C74.1668 71.5796 73.4206 70.8334 72.5002 70.8334C71.5797 70.8334 70.8335 71.5796 70.8335 72.5C70.8335 73.4205 71.5797 74.1667 72.5002 74.1667Z" stroke="#757575" stroke-width="1.66667" stroke-linecap="round" stroke-linejoin="round"/>
<path d="M82.5 77.5L79.9283 74.9283C79.6158 74.6158 79.1919 74.4403 78.75 74.4403C78.3081 74.4403 77.8842 74.6158 77.5717 74.9283L70 82.5" stroke="#757575" stroke-width="1.66667" stroke-linecap="round" stroke-linejoin="round"/>
</svg>
